<mxfile host="Electron" modified="2023-06-19T16:07:37.537Z" agent="Mozilla/5.0 (Windows NT 10.0; Win64; x64) AppleWebKit/537.36 (KHTML, like Gecko) draw.io/21.1.2 Chrome/106.0.5249.199 Electron/21.4.3 Safari/537.36" etag="0rIv_EkssteF44BJwtUx" version="21.1.2" type="device">
  <diagram name="Page-1" id="oyEPs5L3gaES4XJ6qLzD">
    <mxGraphModel dx="4966" dy="2396" grid="1" gridSize="10" guides="1" tooltips="1" connect="1" arrows="1" fold="1" page="1" pageScale="1" pageWidth="850" pageHeight="1100" math="0" shadow="0">
      <root>
        <mxCell id="0" />
        <mxCell id="1" parent="0" />
        <mxCell id="Yr_3TaT6mXeITFAtReDD-326" value="" style="rounded=0;whiteSpace=wrap;html=1;fillColor=#1ba1e2;strokeColor=#006EAF;fontColor=#ffffff;opacity=50;" parent="1" vertex="1">
          <mxGeometry x="180.89999999999998" y="339" width="471.47" height="1310" as="geometry" />
        </mxCell>
        <mxCell id="Yr_3TaT6mXeITFAtReDD-328" value="" style="rounded=0;whiteSpace=wrap;html=1;fillColor=#e51400;strokeColor=#B20000;fontColor=#ffffff;opacity=50;" parent="1" vertex="1">
          <mxGeometry x="-563.62" y="339" width="722.97" height="1310" as="geometry" />
        </mxCell>
        <mxCell id="Yr_3TaT6mXeITFAtReDD-330" value="" style="rounded=0;whiteSpace=wrap;html=1;fillColor=#e1d5e7;strokeColor=#9673a6;opacity=50;" parent="1" vertex="1">
          <mxGeometry x="-637.63" y="1025" width="1310" height="560" as="geometry" />
        </mxCell>
        <mxCell id="Yr_3TaT6mXeITFAtReDD-329" value="" style="rounded=0;whiteSpace=wrap;html=1;fillColor=#60a917;strokeColor=#2D7600;fontColor=#ffffff;opacity=50;" parent="1" vertex="1">
          <mxGeometry x="-637.63" y="353" width="1310" height="643" as="geometry" />
        </mxCell>
        <mxCell id="Yr_3TaT6mXeITFAtReDD-196" value="" style="endArrow=classic;html=1;rounded=0;" parent="1" edge="1">
          <mxGeometry width="50" height="50" relative="1" as="geometry">
            <mxPoint x="-651.63" y="1680" as="sourcePoint" />
            <mxPoint x="-652" y="310" as="targetPoint" />
          </mxGeometry>
        </mxCell>
        <mxCell id="Yr_3TaT6mXeITFAtReDD-197" value="" style="endArrow=classic;html=1;rounded=0;" parent="1" edge="1">
          <mxGeometry width="50" height="50" relative="1" as="geometry">
            <mxPoint x="-651.63" y="1680" as="sourcePoint" />
            <mxPoint x="740" y="1679" as="targetPoint" />
          </mxGeometry>
        </mxCell>
        <mxCell id="Yr_3TaT6mXeITFAtReDD-199" value="&lt;span style=&quot;font-size: 30px;&quot;&gt;Internet connectivity&lt;/span&gt;" style="text;html=1;strokeColor=none;fillColor=none;align=center;verticalAlign=middle;whiteSpace=wrap;rounded=0;" parent="1" vertex="1">
          <mxGeometry x="-62" y="1690" width="342" height="16" as="geometry" />
        </mxCell>
        <mxCell id="Yr_3TaT6mXeITFAtReDD-200" value="&lt;font style=&quot;font-size: 30px;&quot;&gt;Funds control&lt;/font&gt;" style="text;html=1;strokeColor=none;fillColor=none;align=center;verticalAlign=middle;whiteSpace=wrap;rounded=0;rotation=-90;" parent="1" vertex="1">
          <mxGeometry x="-840" y="1010" width="342" height="16" as="geometry" />
        </mxCell>
        <mxCell id="Yr_3TaT6mXeITFAtReDD-202" value="&lt;font style=&quot;font-size: 30px;&quot;&gt;Cold Wallets&lt;/font&gt;" style="text;html=1;strokeColor=none;fillColor=none;align=center;verticalAlign=middle;whiteSpace=wrap;rounded=0;" parent="1" vertex="1">
          <mxGeometry x="251.24" y="1618" width="342" height="16" as="geometry" />
        </mxCell>
        <mxCell id="Yr_3TaT6mXeITFAtReDD-341" value="" style="shape=corner;whiteSpace=wrap;html=1;rotation=-90;dx=611;dy=695;fillColor=#f5f5f5;fontColor=#333333;strokeColor=#666666;opacity=50;" parent="1" vertex="1">
          <mxGeometry x="-551.08" y="371.5799999999999" width="1194.5" height="1179.84" as="geometry" />
        </mxCell>
        <mxCell id="Yr_3TaT6mXeITFAtReDD-342" value="&lt;font style=&quot;font-size: 26px;&quot;&gt;Software Wallets&lt;/font&gt;" style="text;html=1;strokeColor=none;fillColor=none;align=center;verticalAlign=middle;whiteSpace=wrap;rounded=0;" parent="1" vertex="1">
          <mxGeometry x="-309.68999999999994" y="411" width="217.12" height="16" as="geometry" />
        </mxCell>
        <mxCell id="Yr_3TaT6mXeITFAtReDD-201" value="&lt;font style=&quot;font-size: 30px;&quot;&gt;Hot Wallets&lt;/font&gt;" style="text;html=1;strokeColor=none;fillColor=none;align=center;verticalAlign=middle;whiteSpace=wrap;rounded=0;" parent="1" vertex="1">
          <mxGeometry x="-383.63" y="1618" width="342" height="16" as="geometry" />
        </mxCell>
        <mxCell id="Yr_3TaT6mXeITFAtReDD-361" value="&lt;font style=&quot;font-size: 26px;&quot;&gt;Desktop Wallets&lt;/font&gt;" style="rounded=1;whiteSpace=wrap;html=1;fillColor=#b0e3e6;strokeColor=#0e8088;" parent="1" vertex="1">
          <mxGeometry x="-307.13" y="793" width="212" height="436" as="geometry" />
        </mxCell>
        <mxCell id="Yr_3TaT6mXeITFAtReDD-140" value="&lt;font style=&quot;font-size: 26px;&quot;&gt;Mobile Wallets&lt;/font&gt;" style="rounded=1;whiteSpace=wrap;html=1;fillColor=#b0e3e6;strokeColor=#0e8088;" parent="1" vertex="1">
          <mxGeometry x="-532.63" y="794" width="212" height="436" as="geometry" />
        </mxCell>
        <mxCell id="Yr_3TaT6mXeITFAtReDD-350" value="&lt;font style=&quot;font-size: 24px;&quot;&gt;Atomic Wallet&lt;/font&gt;" style="rounded=1;whiteSpace=wrap;html=1;fillColor=#bac8d3;strokeColor=#23445d;container=0;" parent="1" vertex="1">
          <mxGeometry x="-284.88" y="888.5" width="167.5" height="26" as="geometry" />
        </mxCell>
        <mxCell id="Yr_3TaT6mXeITFAtReDD-89" value="&lt;font style=&quot;font-size: 30px;&quot;&gt;Non-Custodial Wallets&lt;/font&gt;" style="text;html=1;strokeColor=none;fillColor=none;align=center;verticalAlign=middle;whiteSpace=wrap;rounded=0;rotation=-90;" parent="1" vertex="1">
          <mxGeometry x="-797.2106504065041" y="676" width="403.1707317073171" height="16" as="geometry" />
        </mxCell>
        <mxCell id="Yr_3TaT6mXeITFAtReDD-362" value="&lt;font style=&quot;font-size: 26px;&quot;&gt;Web Wallets&lt;/font&gt;" style="rounded=1;whiteSpace=wrap;html=1;fillColor=#b0e3e6;strokeColor=#0e8088;" parent="1" vertex="1">
          <mxGeometry x="-79.63" y="794" width="212" height="436" as="geometry" />
        </mxCell>
        <mxCell id="Yr_3TaT6mXeITFAtReDD-354" value="&lt;font style=&quot;font-size: 24px;&quot;&gt;MetaMask&lt;/font&gt;" style="rounded=1;whiteSpace=wrap;html=1;fillColor=#bac8d3;strokeColor=#23445d;container=0;" parent="1" vertex="1">
          <mxGeometry x="-57.379999999999995" y="943" width="167.5" height="26" as="geometry" />
        </mxCell>
        <mxCell id="Yr_3TaT6mXeITFAtReDD-355" value="&lt;font style=&quot;font-size: 24px;&quot;&gt;Guarda Wallet&lt;/font&gt;" style="rounded=1;whiteSpace=wrap;html=1;fillColor=#bac8d3;strokeColor=#23445d;container=0;movable=1;resizable=1;rotatable=1;deletable=1;editable=1;locked=0;connectable=1;" parent="1" vertex="1">
          <mxGeometry x="-57.379999999999995" y="888.5" width="167.5" height="26" as="geometry" />
        </mxCell>
        <mxCell id="Yr_3TaT6mXeITFAtReDD-349" value="&lt;font style=&quot;font-size: 24px;&quot;&gt;Exodus Wallet&lt;/font&gt;" style="rounded=1;whiteSpace=wrap;html=1;fillColor=#bac8d3;strokeColor=#23445d;container=0;" parent="1" vertex="1">
          <mxGeometry x="-284.88" y="947" width="167.5" height="26" as="geometry" />
        </mxCell>
        <mxCell id="Yr_3TaT6mXeITFAtReDD-138" value="&lt;font style=&quot;font-size: 24px;&quot;&gt;Trust Wallet&lt;/font&gt;" style="rounded=1;whiteSpace=wrap;html=1;fillColor=#bac8d3;strokeColor=#23445d;" parent="1" vertex="1">
          <mxGeometry x="-510.38" y="888.5" width="167.5" height="26" as="geometry" />
        </mxCell>
        <mxCell id="Yr_3TaT6mXeITFAtReDD-139" value="&lt;font style=&quot;font-size: 24px;&quot;&gt;Edge Wallet&lt;/font&gt;" style="rounded=1;whiteSpace=wrap;html=1;fillColor=#bac8d3;strokeColor=#23445d;" parent="1" vertex="1">
          <mxGeometry x="-510.38" y="947" width="167.5" height="26" as="geometry" />
        </mxCell>
        <mxCell id="Yr_3TaT6mXeITFAtReDD-371" value="&lt;font style=&quot;font-size: 24px;&quot;&gt;Kraken&lt;/font&gt;" style="rounded=1;whiteSpace=wrap;html=1;fillColor=#bac8d3;strokeColor=#23445d;container=0;" parent="1" vertex="1">
          <mxGeometry x="-57.129999999999995" y="1107" width="167.5" height="26" as="geometry" />
        </mxCell>
        <mxCell id="Yr_3TaT6mXeITFAtReDD-195" value="&lt;font style=&quot;font-size: 30px;&quot;&gt;Custodial Wallets&lt;/font&gt;" style="text;html=1;strokeColor=none;fillColor=none;align=center;verticalAlign=middle;whiteSpace=wrap;rounded=0;rotation=-90;" parent="1" vertex="1">
          <mxGeometry x="-827.3496261682243" y="1297" width="463.4579439252337" height="16" as="geometry" />
        </mxCell>
        <mxCell id="Yr_3TaT6mXeITFAtReDD-372" value="&lt;font style=&quot;font-size: 24px;&quot;&gt;CoinEx&lt;/font&gt;" style="rounded=1;whiteSpace=wrap;html=1;fillColor=#bac8d3;strokeColor=#23445d;container=0;" parent="1" vertex="1">
          <mxGeometry x="-57.629999999999995" y="1053" width="167.5" height="26" as="geometry" />
        </mxCell>
        <mxCell id="Yr_3TaT6mXeITFAtReDD-382" value="" style="group" parent="1" vertex="1" connectable="0">
          <mxGeometry x="-458.63" y="1107" width="341.25" height="26" as="geometry" />
        </mxCell>
        <mxCell id="Yr_3TaT6mXeITFAtReDD-375" value="&lt;font style=&quot;font-size: 24px;&quot;&gt;Bitbuy&lt;/font&gt;" style="rounded=1;whiteSpace=wrap;html=1;fillColor=#bac8d3;strokeColor=#23445d;container=0;" parent="Yr_3TaT6mXeITFAtReDD-382" vertex="1">
          <mxGeometry x="173.75" width="167.5" height="26" as="geometry" />
        </mxCell>
        <mxCell id="Yr_3TaT6mXeITFAtReDD-374" value="&lt;font style=&quot;font-size: 24px;&quot;&gt;eToro&lt;/font&gt;" style="rounded=1;whiteSpace=wrap;html=1;fillColor=#bac8d3;strokeColor=#23445d;container=0;" parent="1" vertex="1">
          <mxGeometry x="-287.63" y="1053" width="167.5" height="26" as="geometry" />
        </mxCell>
        <mxCell id="Yr_3TaT6mXeITFAtReDD-377" value="&lt;font style=&quot;font-size: 24px;&quot;&gt;Coinbase&lt;/font&gt;" style="rounded=1;whiteSpace=wrap;html=1;fillColor=#bac8d3;strokeColor=#23445d;container=0;" parent="1" vertex="1">
          <mxGeometry x="-510.3800000000001" y="1053" width="167.5" height="26" as="geometry" />
        </mxCell>
        <mxCell id="Yr_3TaT6mXeITFAtReDD-378" value="&lt;font style=&quot;font-size: 24px;&quot;&gt;Binance&lt;/font&gt;" style="rounded=1;whiteSpace=wrap;html=1;fillColor=#bac8d3;strokeColor=#23445d;container=0;" parent="1" vertex="1">
          <mxGeometry x="-510.3800000000001" y="1107" width="167.5" height="26" as="geometry" />
        </mxCell>
        <mxCell id="Yr_3TaT6mXeITFAtReDD-332" value="" style="group" parent="1" vertex="1" connectable="0">
          <mxGeometry x="238.75" y="833" width="357" height="100" as="geometry" />
        </mxCell>
        <mxCell id="Yr_3TaT6mXeITFAtReDD-190" value="" style="rounded=1;whiteSpace=wrap;html=1;fillColor=#b0e3e6;strokeColor=#0e8088;" parent="Yr_3TaT6mXeITFAtReDD-332" vertex="1">
          <mxGeometry width="357" height="100" as="geometry" />
        </mxCell>
        <mxCell id="Yr_3TaT6mXeITFAtReDD-191" value="&lt;font style=&quot;font-size: 26px;&quot;&gt;Paper Wallets&lt;/font&gt;" style="text;html=1;strokeColor=none;fillColor=none;align=center;verticalAlign=middle;whiteSpace=wrap;rounded=0;" parent="Yr_3TaT6mXeITFAtReDD-332" vertex="1">
          <mxGeometry x="101.75" y="10" width="178.5" height="16" as="geometry" />
        </mxCell>
        <mxCell id="Yr_3TaT6mXeITFAtReDD-192" value="&lt;font style=&quot;font-size: 24px;&quot;&gt;bitaddress.org&lt;/font&gt;" style="rounded=1;whiteSpace=wrap;html=1;fillColor=#bac8d3;strokeColor=#23445d;" parent="Yr_3TaT6mXeITFAtReDD-332" vertex="1">
          <mxGeometry x="5.880000000000109" y="44" width="167.5" height="46" as="geometry" />
        </mxCell>
        <mxCell id="Yr_3TaT6mXeITFAtReDD-193" value="&lt;font style=&quot;font-size: 24px;&quot;&gt;walletgenerator&lt;/font&gt;" style="rounded=1;whiteSpace=wrap;html=1;fillColor=#bac8d3;strokeColor=#23445d;" parent="Yr_3TaT6mXeITFAtReDD-332" vertex="1">
          <mxGeometry x="183.6300000000001" y="44" width="167.5" height="46" as="geometry" />
        </mxCell>
        <mxCell id="Yr_3TaT6mXeITFAtReDD-231" value="&lt;font style=&quot;font-size: 24px;&quot;&gt;Anchorage&lt;/font&gt;" style="rounded=1;whiteSpace=wrap;html=1;fillColor=#bac8d3;strokeColor=#23445d;" parent="1" vertex="1">
          <mxGeometry x="242.05999999999995" y="964" width="167.5" height="26" as="geometry" />
        </mxCell>
        <mxCell id="Yr_3TaT6mXeITFAtReDD-232" value="&lt;font style=&quot;font-size: 24px;&quot;&gt;Gemini Custody&lt;/font&gt;" style="rounded=1;whiteSpace=wrap;html=1;fillColor=#bac8d3;strokeColor=#23445d;" parent="1" vertex="1">
          <mxGeometry x="416.94000000000017" y="964" width="177.5" height="26" as="geometry" />
        </mxCell>
        <mxCell id="Yr_3TaT6mXeITFAtReDD-331" value="" style="rounded=0;whiteSpace=wrap;html=1;fillColor=#f5f5f5;strokeColor=#666666;opacity=50;fontColor=#333333;" parent="1" vertex="1">
          <mxGeometry x="214.75" y="364" width="407.77" height="443" as="geometry" />
        </mxCell>
        <mxCell id="Yr_3TaT6mXeITFAtReDD-333" value="" style="rounded=1;whiteSpace=wrap;html=1;fillColor=#b0e3e6;strokeColor=#0e8088;" parent="1" vertex="1">
          <mxGeometry x="224.75" y="694" width="382" height="86" as="geometry" />
        </mxCell>
        <mxCell id="Yr_3TaT6mXeITFAtReDD-334" value="&lt;font style=&quot;font-size: 24px;&quot;&gt;Bitfi Knox&lt;/font&gt;" style="rounded=1;whiteSpace=wrap;html=1;fillColor=#bac8d3;strokeColor=#23445d;" parent="1" vertex="1">
          <mxGeometry x="244.75" y="734" width="167.5" height="26" as="geometry" />
        </mxCell>
        <mxCell id="Yr_3TaT6mXeITFAtReDD-335" value="&lt;font style=&quot;font-size: 24px;&quot;&gt;Keystone&lt;/font&gt;" style="rounded=1;whiteSpace=wrap;html=1;fillColor=#bac8d3;strokeColor=#23445d;" parent="1" vertex="1">
          <mxGeometry x="426.2500000000001" y="734" width="167.5" height="26" as="geometry" />
        </mxCell>
        <mxCell id="Yr_3TaT6mXeITFAtReDD-336" value="&lt;font style=&quot;font-size: 26px;&quot;&gt;Air-gapped&lt;/font&gt;" style="text;html=1;strokeColor=none;fillColor=none;align=center;verticalAlign=middle;whiteSpace=wrap;rounded=0;" parent="1" vertex="1">
          <mxGeometry x="331" y="704" width="178.5" height="16" as="geometry" />
        </mxCell>
        <mxCell id="Yr_3TaT6mXeITFAtReDD-337" value="" style="rounded=1;whiteSpace=wrap;html=1;fillColor=#b0e3e6;strokeColor=#0e8088;" parent="1" vertex="1">
          <mxGeometry x="224.75" y="583.5" width="382" height="86" as="geometry" />
        </mxCell>
        <mxCell id="Yr_3TaT6mXeITFAtReDD-338" value="&lt;font style=&quot;font-size: 24px;&quot;&gt;Ellipal Titan&lt;/font&gt;" style="rounded=1;whiteSpace=wrap;html=1;fillColor=#bac8d3;strokeColor=#23445d;" parent="1" vertex="1">
          <mxGeometry x="244.75" y="623.5" width="167.5" height="26" as="geometry" />
        </mxCell>
        <mxCell id="Yr_3TaT6mXeITFAtReDD-339" value="&lt;font style=&quot;font-size: 24px;&quot;&gt;Atomic Wallet&lt;/font&gt;" style="rounded=1;whiteSpace=wrap;html=1;fillColor=#bac8d3;strokeColor=#23445d;" parent="1" vertex="1">
          <mxGeometry x="426.2500000000001" y="623.5" width="167.5" height="26" as="geometry" />
        </mxCell>
        <mxCell id="Yr_3TaT6mXeITFAtReDD-340" value="&lt;span style=&quot;font-size: 26px;&quot;&gt;Smart Card&lt;/span&gt;" style="text;html=1;strokeColor=none;fillColor=none;align=center;verticalAlign=middle;whiteSpace=wrap;rounded=0;" parent="1" vertex="1">
          <mxGeometry x="331" y="593.5" width="178.5" height="16" as="geometry" />
        </mxCell>
        <mxCell id="Yr_3TaT6mXeITFAtReDD-169" value="" style="rounded=1;whiteSpace=wrap;html=1;fillColor=#b0e3e6;strokeColor=#0e8088;" parent="1" vertex="1">
          <mxGeometry x="224.75" y="473.5" width="382" height="86" as="geometry" />
        </mxCell>
        <mxCell id="Yr_3TaT6mXeITFAtReDD-167" value="&lt;font style=&quot;font-size: 24px;&quot;&gt;Ledger Nano S&lt;/font&gt;" style="rounded=1;whiteSpace=wrap;html=1;fillColor=#bac8d3;strokeColor=#23445d;" parent="1" vertex="1">
          <mxGeometry x="244.75" y="513.5" width="167.5" height="26" as="geometry" />
        </mxCell>
        <mxCell id="Yr_3TaT6mXeITFAtReDD-168" value="&lt;font style=&quot;font-size: 24px;&quot;&gt;Trezor Model T&lt;/font&gt;" style="rounded=1;whiteSpace=wrap;html=1;fillColor=#bac8d3;strokeColor=#23445d;" parent="1" vertex="1">
          <mxGeometry x="426.2500000000001" y="513.5" width="167.5" height="26" as="geometry" />
        </mxCell>
        <mxCell id="Yr_3TaT6mXeITFAtReDD-166" value="&lt;font style=&quot;font-size: 26px;&quot;&gt;USB Wallets&lt;/font&gt;" style="text;html=1;strokeColor=none;fillColor=none;align=center;verticalAlign=middle;whiteSpace=wrap;rounded=0;" parent="1" vertex="1">
          <mxGeometry x="331" y="483.5" width="178.5" height="16" as="geometry" />
        </mxCell>
        <mxCell id="Yr_3TaT6mXeITFAtReDD-170" value="&lt;font style=&quot;font-size: 26px;&quot;&gt;Hardware Wallets&lt;/font&gt;" style="text;html=1;strokeColor=none;fillColor=none;align=center;verticalAlign=middle;whiteSpace=wrap;rounded=0;" parent="1" vertex="1">
          <mxGeometry x="310.07000000000016" y="411" width="217.12" height="16" as="geometry" />
        </mxCell>
        <mxCell id="Yr_3TaT6mXeITFAtReDD-171" value="&lt;font style=&quot;font-size: 24px;&quot;&gt;Ellipal Titan&lt;/font&gt;" style="rounded=1;whiteSpace=wrap;html=1;fillColor=#bac8d3;strokeColor=#23445d;" parent="1" vertex="1">
          <mxGeometry x="246.01" y="1097" width="167.5" height="32" as="geometry" />
        </mxCell>
        <mxCell id="Yr_3TaT6mXeITFAtReDD-172" value="&lt;font style=&quot;font-size: 24px;&quot;&gt;Atomic Wallet&lt;/font&gt;" style="rounded=1;whiteSpace=wrap;html=1;fillColor=#bac8d3;strokeColor=#23445d;" parent="1" vertex="1">
          <mxGeometry x="423.7600000000001" y="1097" width="167.5" height="32" as="geometry" />
        </mxCell>
      </root>
    </mxGraphModel>
  </diagram>
</mxfile>
